<svg width="140" height="48" viewBox="0 0 140 48" fill="none" xmlns="http://www.w3.org/2000/svg">
<path d="M10.0757 12.5817C9.75456 12.3162 9.4493 12.0639 9.14132 11.8083C9.11942 11.7902 9.09416 11.7766 9.06697 11.7682C9.03978 11.7599 9.01121 11.757 8.98291 11.7598C8.95461 11.7626 8.92714 11.7709 8.90209 11.7844C8.87704 11.7978 8.8549 11.8161 8.83695 11.8382C8.15546 12.6786 7.61479 13.624 7.23599 14.6376C7.22634 14.6642 7.22203 14.6925 7.2233 14.7208C7.22458 14.7491 7.23142 14.7769 7.24343 14.8026C7.25544 14.8282 7.27239 14.8513 7.2933 14.8704C7.31422 14.8895 7.3387 14.9043 7.36533 14.9139L8.50229 15.3277C8.55466 15.3461 8.61207 15.3435 8.66261 15.3206C8.71314 15.2977 8.75291 15.2562 8.77364 15.2047C9.11013 14.3718 9.55917 13.5889 10.1082 12.8779C10.1422 12.8339 10.1577 12.7785 10.1517 12.7232C10.1456 12.668 10.1183 12.6173 10.0757 12.5817Z" fill="#671DB4"/>
<path d="M18.5752 9.38054C18.5712 9.43095 18.5849 9.48119 18.6141 9.5225C18.6433 9.56382 18.686 9.5936 18.7349 9.60667C19.1848 9.72425 19.6172 9.82374 20.0351 9.96846C20.453 10.1132 20.864 10.3004 21.2968 10.4849C21.3457 10.5056 21.4005 10.5074 21.4506 10.4901C21.5007 10.4727 21.5426 10.4373 21.5682 10.3909C21.759 10.0458 21.9481 9.7039 22.1471 9.343C22.161 9.31805 22.1697 9.29059 22.1729 9.26221C22.1761 9.23383 22.1736 9.20511 22.1655 9.17771C22.1575 9.15031 22.1441 9.12478 22.1261 9.10261C22.1081 9.08045 22.0859 9.06208 22.0607 9.04859C21.1057 8.53704 20.0732 8.18565 19.0044 8.00842C18.9764 8.00405 18.9478 8.00528 18.9202 8.01203C18.8927 8.01877 18.8668 8.0309 18.8439 8.04772C18.8211 8.06454 18.8018 8.08571 18.7872 8.11001C18.7726 8.13431 18.763 8.16127 18.7588 8.18932C18.6982 8.60177 18.6046 8.99115 18.5752 9.38054Z" fill="#FF0176"/>
<path d="M15.4257 9.42615C15.3493 9.02546 15.2751 8.63743 15.1996 8.23764C15.1943 8.2095 15.1834 8.18271 15.1676 8.15883C15.1517 8.13496 15.1313 8.11448 15.1075 8.09861C15.0836 8.08273 15.0569 8.07177 15.0287 8.06636C15.0006 8.06096 14.9717 8.06123 14.9436 8.06714C13.87 8.30277 12.8687 8.65145 11.9262 9.21043C11.8778 9.24005 11.843 9.28757 11.8294 9.34268C11.8157 9.3978 11.8244 9.45606 11.8534 9.50484L12.4708 10.5477C12.4997 10.596 12.5463 10.6311 12.6007 10.6454C12.6551 10.6598 12.713 10.6523 12.762 10.6246C13.5557 10.1814 14.3792 9.88428 15.2643 9.67489C15.318 9.66212 15.3648 9.62916 15.3948 9.58285C15.4249 9.53653 15.436 9.48042 15.4257 9.42615Z" fill="#FF0176"/>
<path d="M26.9088 14.3095C26.4975 13.3178 25.9293 12.3987 25.226 11.5874C25.188 11.545 25.1348 11.5194 25.078 11.516C25.0212 11.5126 24.9653 11.5318 24.9225 11.5693L24.0144 12.3607C23.9724 12.3976 23.9463 12.4494 23.9419 12.5051C23.9374 12.5609 23.9548 12.6161 23.9904 12.6592C24.5578 13.3446 25.0281 14.1047 25.3883 14.9182C25.4083 14.9648 25.4442 15.0028 25.4896 15.0255C25.535 15.0481 25.5869 15.0538 25.6362 15.0417C26.0439 14.9274 26.4391 14.7723 26.8156 14.5786C26.8614 14.5529 26.8962 14.5113 26.9134 14.4617C26.9305 14.4121 26.9289 14.358 26.9088 14.3095Z" fill="#671DB4"/>
<path d="M25.8686 21.2635C26.2612 21.3947 26.6375 21.5417 27.0386 21.6371C27.092 21.6503 27.1484 21.6427 27.1964 21.6159C27.2444 21.5891 27.2805 21.5451 27.2973 21.4928C27.6261 20.4591 27.7699 19.3755 27.722 18.2918C27.7188 18.2349 27.6932 18.1817 27.6508 18.1437C27.6084 18.1057 27.5527 18.0861 27.4958 18.0892L26.3209 18.1489C26.2668 18.1516 26.2157 18.1747 26.178 18.2136C26.1402 18.2524 26.1186 18.3041 26.1174 18.3583C26.093 19.2628 25.9817 20.1311 25.7302 20.9994C25.7146 21.0528 25.7203 21.1101 25.7462 21.1594C25.772 21.2086 25.8159 21.246 25.8686 21.2635Z" fill="#1772D1"/>
<path d="M9.61889 7.74462L8.93825 6.78721C8.90506 6.74052 8.8547 6.70892 8.79823 6.69934C8.74175 6.68975 8.68379 6.70298 8.63705 6.7361C7.81722 7.32876 7.0623 8.00637 6.38485 8.75766C6.36574 8.77898 6.35106 8.80391 6.34168 8.83097C6.33229 8.85803 6.32839 8.88669 6.3302 8.91527C6.33201 8.94385 6.3395 8.97179 6.35222 8.99745C6.36494 9.02311 6.38265 9.04599 6.4043 9.06473L7.30337 9.84351C7.34303 9.87779 7.39387 9.89635 7.44629 9.89569C7.49871 9.89502 7.54906 9.87517 7.58784 9.83989L9.58768 8.02727C9.6267 7.99222 9.65145 7.94403 9.6572 7.8919C9.66296 7.83976 9.64932 7.78734 9.61889 7.74462Z" fill="#62EDC2"/>
<path d="M27.2706 26.6516L28.2149 27.4204C28.237 27.4386 28.2626 27.4521 28.29 27.4602C28.3174 27.4684 28.3462 27.471 28.3747 27.468C28.4031 27.4649 28.4307 27.4562 28.4557 27.4424C28.4808 27.4285 28.5028 27.4098 28.5206 27.3874C29.147 26.5935 29.6873 25.7353 30.1324 24.8272C30.157 24.7758 30.1603 24.7167 30.1415 24.6629C30.1227 24.6091 30.0833 24.5649 30.032 24.5401L28.9376 24.0087C28.8867 23.9841 28.8282 23.9806 28.7748 23.9988C28.7213 24.017 28.6771 24.0554 28.6518 24.1059C28.2532 24.8986 27.7795 25.6513 27.2371 26.3536C27.2029 26.3978 27.1872 26.4537 27.1934 26.5094C27.1997 26.565 27.2274 26.616 27.2706 26.6516Z" fill="#1772D1"/>
<path d="M29.9629 18.19C29.9778 19.0762 29.9046 19.9617 29.7444 20.8334C29.7344 20.8886 29.7463 20.9455 29.7777 20.992C29.809 21.0384 29.8573 21.0708 29.9122 21.0822L31.103 21.3259C31.1311 21.3318 31.16 21.3319 31.1882 21.3264C31.2163 21.3209 31.2431 21.3098 31.2669 21.2938C31.2907 21.2778 31.3111 21.2572 31.3268 21.2332C31.3425 21.2092 31.3533 21.1823 31.3585 21.1541C31.5394 20.1424 31.6466 19.1642 31.6095 18.1756C31.6069 18.1203 31.5831 18.0681 31.543 18.0299C31.5029 17.9917 31.4496 17.9705 31.3942 17.9707H30.1759C30.1474 17.9708 30.1192 17.9765 30.0929 17.9876C30.0667 17.9987 30.043 18.015 30.0231 18.0355C30.0033 18.0559 29.9877 18.0801 29.9773 18.1067C29.967 18.1332 29.9621 18.1616 29.9629 18.19Z" fill="#671DB4"/>
<path d="M21.2241 6.28373C21.2456 6.29022 21.2677 6.29462 21.2901 6.29685C21.3383 6.30189 21.3868 6.29058 21.4278 6.26475C21.4688 6.23891 21.5 6.20005 21.5162 6.15439C21.6496 5.77495 21.7812 5.39959 21.9178 5.01156C21.9272 4.98468 21.9312 4.95623 21.9295 4.92782C21.9279 4.89941 21.9207 4.8716 21.9083 4.84598C21.8959 4.82036 21.8786 4.79743 21.8573 4.77851C21.8361 4.75958 21.8113 4.74503 21.7844 4.73568C20.8284 4.40513 19.8377 4.18481 18.8317 4.07902C18.7751 4.07385 18.7188 4.09125 18.675 4.12742C18.6312 4.16359 18.6035 4.21561 18.5979 4.27213C18.5499 4.73795 18.5047 5.1816 18.4563 5.65285C18.5053 5.67995 18.5576 5.70062 18.6119 5.71435C19.5064 5.7953 20.3716 6.00922 21.2241 6.28373Z" fill="#62EDC2"/>
<path d="M15.371 5.53925C15.3415 5.12487 15.2847 4.71289 15.201 4.30597C15.1895 4.25233 15.158 4.20508 15.1128 4.1739C15.0677 4.14272 15.0124 4.12994 14.9581 4.13819C13.9611 4.28694 12.9829 4.54195 12.0402 4.89887C12.0137 4.9093 11.9895 4.92485 11.969 4.94464C11.9485 4.96443 11.9321 4.98807 11.9208 5.0142C11.9095 5.04032 11.9034 5.06843 11.9029 5.09691C11.9025 5.12539 11.9076 5.15368 11.9181 5.18017C12.07 5.56322 12.217 5.93542 12.3672 6.3135C12.388 6.36583 12.4285 6.40787 12.48 6.43055C12.5316 6.45323 12.59 6.45472 12.6426 6.43471C13.4678 6.12775 14.3212 5.90295 15.1906 5.76357C15.2431 5.75524 15.2907 5.72767 15.324 5.68621C15.3574 5.64475 15.3741 5.59237 15.371 5.53925Z" fill="#62EDC2"/>
<path d="M5.54004 12.4017L4.49987 11.8541C4.47478 11.8408 4.44733 11.8326 4.41908 11.83C4.39084 11.8274 4.36235 11.8304 4.33525 11.8388C4.30816 11.8472 4.28299 11.8608 4.26118 11.879C4.23937 11.8971 4.22136 11.9194 4.20817 11.9445C3.75061 12.8479 3.39229 13.7982 3.1395 14.7788C3.13253 14.8064 3.13109 14.8351 3.13526 14.8633C3.13943 14.8914 3.14913 14.9185 3.1638 14.9429C3.17846 14.9674 3.19781 14.9886 3.22073 15.0056C3.24365 15.0225 3.26968 15.0347 3.29734 15.0415L4.43926 15.3233C4.49024 15.3355 4.54394 15.3288 4.59026 15.3042C4.63657 15.2796 4.6723 15.2389 4.69071 15.1898L5.64044 12.6672C5.65874 12.6183 5.65865 12.5644 5.64018 12.5156C5.62171 12.4667 5.58612 12.4263 5.54004 12.4017Z" fill="#671DB4"/>
<path d="M31.0121 14.323C30.7159 13.3362 30.3486 12.4122 29.8466 11.5218C29.8181 11.4724 29.7711 11.4363 29.716 11.4215C29.6609 11.4066 29.6022 11.4142 29.5527 11.4426L28.5025 12.0441C28.4541 12.072 28.4184 12.1177 28.4031 12.1715C28.3879 12.2253 28.3941 12.283 28.4207 12.3322C28.8331 13.1134 29.1726 13.9309 29.4351 14.7743C29.4517 14.8274 29.4883 14.8719 29.5372 14.8985C29.5861 14.9251 29.6433 14.9317 29.6969 14.9168L30.8624 14.5934C30.8901 14.5858 30.9161 14.5727 30.9387 14.5549C30.9613 14.537 30.9802 14.5149 30.9941 14.4897C31.0081 14.4645 31.0168 14.4368 31.0199 14.4082C31.023 14.3795 31.0203 14.3506 31.0121 14.323Z" fill="#671DB4"/>
<path d="M26.6827 9.53381L27.5519 8.71976C27.5936 8.68071 27.6182 8.62672 27.6202 8.56959C27.6223 8.51247 27.6016 8.45687 27.5627 8.41495C26.8709 7.6758 26.0953 7.01969 25.2517 6.45987C25.204 6.4287 25.1458 6.41771 25.0899 6.42932C25.0341 6.44093 24.9851 6.4742 24.9537 6.52183L24.2894 7.52175C24.2594 7.56735 24.2478 7.62261 24.257 7.6764C24.2661 7.73019 24.2953 7.77852 24.3387 7.81165C24.7041 8.08842 25.0555 8.34575 25.3888 8.62569C25.7221 8.90564 26.0405 9.21362 26.3873 9.5329C26.4272 9.57068 26.4799 9.59181 26.5348 9.59198C26.5897 9.59215 26.6426 9.57134 26.6827 9.53381Z" fill="#62EDC2"/>
<path d="M4.07975 18.4076C3.65962 18.4103 3.25621 18.3818 2.85868 18.4433C2.80704 18.4513 2.76002 18.4776 2.72628 18.5175C2.69254 18.5574 2.67435 18.6082 2.67507 18.6604C2.69497 19.6581 2.79175 20.6286 3.02601 21.6195C3.03937 21.6736 3.07313 21.7205 3.12024 21.7503C3.16735 21.7802 3.22417 21.7906 3.27882 21.7796C3.67725 21.6968 4.06981 21.6054 4.47321 21.4983C4.52713 21.4835 4.5732 21.4483 4.60171 21.4002C4.63023 21.3522 4.63896 21.2949 4.62607 21.2405C4.42301 20.3599 4.35472 19.4903 4.30045 18.6093C4.29674 18.5537 4.27171 18.5017 4.2306 18.4641C4.18948 18.4266 4.13544 18.4063 4.07975 18.4076Z" fill="#671DB4"/>
<path d="M8.19203 18.6239C8.18525 18.5049 8.15721 18.4104 8.01565 18.41C7.58828 18.41 7.16045 18.3991 6.71951 18.4584C6.66917 18.4661 6.62327 18.4916 6.59009 18.5303C6.55692 18.5689 6.53866 18.6182 6.53861 18.6691C6.53589 19.6324 6.70051 20.5577 6.97548 21.4902C6.99111 21.5434 7.02664 21.5884 7.07467 21.6159C7.1227 21.6435 7.17952 21.6514 7.23326 21.6381C7.63369 21.5303 8.02828 21.4018 8.41544 21.2533C8.46363 21.2356 8.50386 21.2013 8.52878 21.1564C8.55369 21.1116 8.56162 21.0593 8.55112 21.009C8.45298 20.5315 8.33946 20.0566 8.26213 19.5754C8.20967 19.2629 8.20967 18.9414 8.19203 18.6239Z" fill="#1772D1"/>
<path d="M4.3642 25.2462C4.78117 26.0186 5.22799 26.7237 5.76301 27.3849C5.78104 27.4069 5.80331 27.4252 5.8285 27.4385C5.8537 27.4519 5.8813 27.4601 5.9097 27.4626C5.9381 27.4651 5.96672 27.462 5.99387 27.4533C6.02102 27.4446 6.04617 27.4305 6.06782 27.412C6.3844 27.1406 6.71635 26.9195 6.99674 26.6567C7.03388 26.622 7.05763 26.5752 7.06383 26.5247C7.07003 26.4742 7.05829 26.4231 7.03066 26.3804C6.6164 25.7441 6.21435 25.1277 5.79738 24.4878C5.76866 24.4433 5.72449 24.411 5.67339 24.3971C5.62229 24.3833 5.56786 24.3888 5.5206 24.4127L4.45736 24.9527C4.43182 24.9657 4.40913 24.9836 4.39059 25.0055C4.37204 25.0273 4.35803 25.0526 4.34936 25.0799C4.34069 25.1072 4.33754 25.136 4.34009 25.1645C4.34264 25.1931 4.35083 25.2208 4.3642 25.2462Z" fill="#1772D1"/>
<path d="M16.8277 39.322C16.6694 39.322 16.5849 39.3053 16.5451 39.265L16.5306 39.2506L16.5193 39.2026C16.5193 39.0986 16.5328 34.9226 16.5328 34.9226C16.5326 34.8555 16.5062 34.7911 16.4592 34.7432C16.4123 34.6953 16.3485 34.6677 16.2814 34.6661C15.9096 34.6607 14.9789 34.6535 14.5294 34.6521C12.0366 34.6435 10.0069 32.7594 9.80383 30.2703C9.80383 28.4301 9.80383 21.8033 9.80383 21.8033C9.80395 21.7341 9.83148 21.6678 9.88039 21.6189C9.92931 21.57 9.99561 21.5424 10.0648 21.5423H11.2859C11.3532 21.5422 11.4177 21.5155 11.4654 21.4681C11.5132 21.4207 11.5403 21.3563 11.5409 21.2891C11.5441 20.9331 11.5522 18.358 11.5522 18.358C11.5567 17.2274 11.8525 16.2139 12.4328 15.351C13.5797 13.6424 15.1752 12.7764 17.1746 12.7764C17.2578 12.7764 17.3419 12.7764 17.4274 12.7809C20.0708 12.8713 22.275 14.8875 22.6694 17.5698C22.735 18.0134 22.7305 18.4643 22.7255 18.9012V19.0142C22.7254 19.0843 22.6976 19.1516 22.6483 19.2013C22.5989 19.2511 22.5319 19.2794 22.4618 19.2802H21.5121L21.5573 19.2046C21.5573 19.1951 21.5514 19.0902 21.5474 19.0133C21.5433 18.9365 21.5392 18.8455 21.5401 18.7872C21.5474 18.2793 21.5343 17.7353 21.3846 17.1953C21.1488 16.3367 20.6591 15.5693 19.9797 14.9938C19.3003 14.4183 18.4628 14.0616 17.5771 13.9703C17.4269 13.9538 17.2759 13.9455 17.1248 13.9454C15.1349 13.9454 12.9189 15.4085 12.7308 18.1188C12.7222 18.8166 12.7236 20.6536 12.7245 21.2565C12.7245 21.4125 12.833 21.5315 12.9759 21.5333C13.5308 21.5382 15.4728 21.5414 18.748 21.5414H24.2215C24.2901 21.5416 24.3559 21.5689 24.4045 21.6174C24.4531 21.6658 24.4806 21.7315 24.4811 21.8001C24.4838 22.7268 24.4974 27.4699 24.4743 29.8307C24.4535 31.8699 23.5025 33.3582 21.6478 34.2501C21.0695 34.5224 20.4372 34.6607 19.7981 34.6544H17.9968C17.9289 34.6546 17.8638 34.6817 17.8159 34.7298C17.7679 34.7778 17.7409 34.8429 17.7408 34.9108L17.7381 39.0715C17.7381 39.1167 17.7381 39.2375 17.6929 39.2831L17.6779 39.2985L17.639 39.3067C17.639 39.3067 17.2614 39.313 17.1416 39.313C17.1086 39.313 17.0647 39.313 17.0163 39.3166C16.9593 39.3193 16.8919 39.322 16.8277 39.322ZM13.1853 31.674C12.2767 31.674 11.7774 31.6813 11.659 31.6962C11.6439 31.697 11.6292 31.7011 11.6159 31.7081C11.6025 31.7151 11.5908 31.725 11.5816 31.7369C11.5654 31.7617 11.5593 31.7918 11.5644 31.821C11.5773 31.8599 11.5935 31.8976 11.6128 31.9336C11.6436 31.9825 11.6748 32.0295 11.7096 32.0743C12.2695 32.7888 12.9759 33.2334 13.8035 33.3944C14.1874 33.4613 14.5767 33.4916 14.9663 33.4849C15.12 33.4849 15.2742 33.4821 15.428 33.4794H15.4859C15.6591 33.4763 15.8323 33.4726 16.006 33.4726C16.0933 33.4726 16.1805 33.4726 16.2678 33.4763C16.3346 33.4782 16.3994 33.4538 16.4483 33.4082C16.4971 33.3627 16.5261 33.2997 16.5288 33.2329C16.5767 31.9124 16.5586 24.1319 16.517 22.9768C16.5148 22.9107 16.4868 22.8479 16.4391 22.802C16.3914 22.7561 16.3277 22.7305 16.2615 22.7308H11.4464C11.3244 22.7309 11.2074 22.7794 11.121 22.8656C11.0346 22.9518 10.9859 23.0687 10.9856 23.1908V24.2667C10.986 24.3339 11.013 24.3982 11.0606 24.4457C11.1081 24.4932 11.1725 24.52 11.2397 24.5204H13.0288C13.6909 24.5204 14.1789 24.5204 14.4837 24.5244C14.5531 24.5253 14.6193 24.5535 14.6679 24.603C14.7166 24.6525 14.7437 24.7192 14.7433 24.7886L14.7397 25.4556C14.7388 25.5248 14.7108 25.5908 14.6616 25.6394C14.6124 25.688 14.5461 25.7152 14.4769 25.7152H11.4469C11.3257 25.7163 11.2098 25.765 11.1242 25.8508C11.0387 25.9366 10.9903 26.0526 10.9896 26.1738V27.0548C10.9897 27.177 11.0383 27.2941 11.1247 27.3805C11.2111 27.4669 11.3283 27.5155 11.4505 27.5156H14.4606C14.5307 27.5156 14.598 27.5434 14.6476 27.5929C14.6972 27.6425 14.7251 27.7096 14.7252 27.7797V28.4418C14.7251 28.5119 14.6972 28.5791 14.6476 28.6286C14.598 28.6781 14.5307 28.7059 14.4606 28.7059H11.2257C11.1918 28.7059 11.1582 28.7126 11.1268 28.7256C11.0955 28.7387 11.0671 28.7579 11.0433 28.782C11.0194 28.8062 11.0007 28.8349 10.988 28.8664C10.9754 28.8979 10.9692 28.9316 10.9697 28.9655C10.9697 29.0863 10.9697 29.2061 10.9697 29.3273C10.9586 29.6482 10.9702 29.9695 11.0046 30.2888C11.0133 30.35 11.0438 30.406 11.0904 30.4466C11.1371 30.4871 11.1969 30.5095 11.2587 30.5095H14.4643C14.5343 30.5095 14.6014 30.5373 14.651 30.5867C14.7006 30.6361 14.7286 30.7032 14.7288 30.7732V31.6668L14.5479 31.6799C14.2056 31.6759 13.6914 31.674 13.1853 31.674ZM18.2021 22.7299C18.0801 22.73 17.9631 22.7785 17.8768 22.8647C17.7905 22.9509 17.7419 23.0679 17.7417 23.1899V33.0082C17.7421 33.1296 17.7903 33.246 17.8758 33.3321C17.9614 33.4182 18.0775 33.467 18.1989 33.4681C18.1989 33.4681 18.9166 33.4749 19.1247 33.4749C19.4236 33.4749 19.6701 33.4704 19.9012 33.4618C20.9581 33.4215 21.8459 32.9598 22.545 32.0888C22.5749 32.0509 22.5935 32.0055 22.5988 31.9576C22.604 31.9097 22.5957 31.8613 22.5748 31.8179C22.5538 31.7745 22.5211 31.7379 22.4804 31.7122C22.4396 31.6865 22.3924 31.6728 22.3442 31.6727H19.8085C19.7738 31.6727 19.7394 31.666 19.7074 31.6528C19.6753 31.6395 19.6462 31.6201 19.6216 31.5957C19.597 31.5712 19.5775 31.5421 19.5642 31.5101C19.5509 31.478 19.544 31.4437 19.5439 31.409V30.7578C19.5439 30.723 19.5508 30.6886 19.5641 30.6565C19.5774 30.6244 19.5968 30.5953 19.6214 30.5707C19.646 30.5461 19.6751 30.5267 19.7072 30.5134C19.7393 30.5001 19.7737 30.4932 19.8085 30.4932H22.8182C22.9345 30.4927 23.0463 30.4484 23.1315 30.3693C23.2167 30.2901 23.2691 30.1818 23.2781 30.0658C23.3047 29.6838 23.3033 29.3003 23.2741 28.9185C23.2678 28.8552 23.2383 28.7965 23.1913 28.7538C23.1442 28.711 23.083 28.6872 23.0194 28.6869H19.8021C19.7321 28.6869 19.6648 28.6591 19.6152 28.6096C19.5656 28.5601 19.5377 28.4929 19.5376 28.4228V27.768C19.5378 27.698 19.5658 27.6309 19.6154 27.5815C19.665 27.5321 19.7321 27.5043 19.8021 27.5043H22.8137C22.9357 27.504 23.0526 27.4553 23.1388 27.3689C23.225 27.2825 23.2735 27.1655 23.2736 27.0435V26.1543C23.2735 26.0323 23.225 25.9153 23.1388 25.8289C23.0526 25.7426 22.9357 25.6939 22.8137 25.6935H19.8058C19.7358 25.6933 19.6688 25.6654 19.6193 25.6159C19.5698 25.5664 19.5419 25.4994 19.5417 25.4294V24.7836C19.5417 24.7144 19.5691 24.648 19.6181 24.5991C19.667 24.5501 19.7334 24.5226 19.8026 24.5226C20.2359 24.5226 20.8563 24.5258 21.4569 24.5258C22.2488 24.5258 22.7784 24.5226 23.0317 24.5149C23.0983 24.5132 23.1616 24.4853 23.208 24.4374C23.2543 24.3894 23.28 24.3252 23.2795 24.2585V23.1899C23.2793 23.0679 23.2307 22.9509 23.1444 22.8647C23.0581 22.7785 22.9411 22.73 22.8191 22.7299H18.2021Z" fill="#1772D1"/>
<path d="M15.4959 41.0195H15.1015V43.3898H15.4959V41.0195Z" fill="#62EDC2"/>
<path d="M13.1478 43.5659C13.0087 43.5657 12.8755 43.5103 12.7772 43.412C12.679 43.3136 12.6237 43.1803 12.6236 43.0413V41.3698C12.6236 41.2307 12.6788 41.0973 12.7771 40.9988C12.8753 40.9004 13.0087 40.845 13.1478 40.8447H13.8049C13.9441 40.845 14.0775 40.9004 14.1759 40.9988C14.2743 41.0972 14.3297 41.2306 14.3299 41.3698V43.0395C14.3301 43.1085 14.3166 43.1769 14.2902 43.2408C14.2639 43.3046 14.2253 43.3626 14.1765 43.4115C14.1277 43.4604 14.0698 43.4992 14.006 43.5257C13.9423 43.5522 13.8739 43.5658 13.8049 43.5659H13.1478ZM13.1478 41.2409C13.1132 41.2411 13.0802 41.255 13.0559 41.2795C13.0316 41.304 13.018 41.3371 13.018 41.3716V43.0413C13.018 43.0758 13.0316 43.1088 13.0559 43.1332C13.0803 43.1577 13.1133 43.1714 13.1478 43.1715H13.8049C13.8395 43.1715 13.8726 43.1578 13.8971 43.1334C13.9216 43.109 13.9355 43.0759 13.9356 43.0413V41.3698C13.9355 41.3352 13.9216 41.302 13.8972 41.2775C13.8727 41.253 13.8395 41.2392 13.8049 41.2391L13.1478 41.2409Z" fill="#62EDC2"/>
<path d="M16.792 43.5659C16.653 43.5657 16.5197 43.5103 16.4214 43.412C16.3232 43.3136 16.2679 43.1803 16.2678 43.0413V41.3698C16.2678 41.2307 16.323 41.0973 16.4213 40.9988C16.5196 40.9004 16.6529 40.845 16.792 40.8447H17.4491C17.5882 40.845 17.7216 40.9004 17.8199 40.9988C17.9183 41.0972 17.9736 41.2306 17.9737 41.3698V43.0395C17.9736 43.1786 17.9183 43.312 17.8199 43.4103C17.7216 43.5087 17.5882 43.564 17.4491 43.5641L16.792 43.5659ZM16.792 41.2409C16.7575 41.2411 16.7245 41.255 16.7001 41.2795C16.6758 41.304 16.6622 41.3371 16.6622 41.3716V43.0413C16.6622 43.0758 16.6758 43.1088 16.7002 43.1332C16.7245 43.1577 16.7575 43.1714 16.792 43.1715H17.4491C17.4836 43.1715 17.5168 43.1578 17.5412 43.1334C17.5656 43.109 17.5793 43.0758 17.5793 43.0413V41.3698C17.5793 41.3352 17.5656 41.302 17.5412 41.2775C17.5168 41.253 17.4837 41.2392 17.4491 41.2391L16.792 41.2409Z" fill="#62EDC2"/>
<path d="M19.1401 41.0195H18.7457V43.3898H19.1401V41.0195Z" fill="#62EDC2"/>
<path d="M20.4362 43.5659C20.2972 43.5657 20.1639 43.5103 20.0655 43.412C19.9672 43.3137 19.9119 43.1804 19.9116 43.0413V41.3698C19.9117 41.2306 19.967 41.0972 20.0654 40.9988C20.1637 40.9004 20.2971 40.845 20.4362 40.8447H21.0933C21.2324 40.8451 21.3657 40.9005 21.4639 40.999C21.5622 41.0974 21.6174 41.2307 21.6175 41.3698V43.0395C21.6174 43.1786 21.5621 43.312 21.4637 43.4103C21.3654 43.5087 21.232 43.564 21.0929 43.5641L20.4362 43.5659ZM20.4362 41.2409C20.4016 41.241 20.3685 41.2548 20.3441 41.2793C20.3197 41.3038 20.306 41.337 20.306 41.3716V43.0413C20.306 43.0758 20.3197 43.109 20.3441 43.1334C20.3686 43.1578 20.4017 43.1715 20.4362 43.1715H21.0933C21.1279 43.1715 21.161 43.1578 21.1854 43.1334C21.2099 43.109 21.2236 43.0758 21.2236 43.0413V41.3698C21.2236 41.3352 21.2099 41.302 21.1855 41.2775C21.1611 41.253 21.1279 41.2392 21.0933 41.2391L20.4362 41.2409Z" fill="#62EDC2"/>
<path d="M22.8716 41.0195H22.4772V43.3898H22.8716V41.0195Z" fill="#62EDC2"/>
<path d="M11.8118 41.0195H11.4179V43.3898H11.8118V41.0195Z" fill="#62EDC2"/>
<path d="M102.827 43.3889L102.627 43.2261L102.578 43.1537L102.547 43.0212L102.581 42.9149C102.612 42.8299 102.632 42.7765 102.654 42.7241L104.108 39.4195C105.527 36.1963 106.918 33.0428 108.319 29.8797C107.107 27.1332 105.922 24.4202 104.773 21.7958L103.354 18.5527C103.329 18.4948 103.305 18.4365 103.281 18.3718L103.22 18.2126L103.29 17.9842L103.357 17.8345L104.985 17.8106C105.092 17.8097 105.197 17.8406 105.287 17.8996C105.377 17.9585 105.447 18.0427 105.489 18.1416L109.103 26.6294C109.138 26.7119 109.197 26.7823 109.271 26.8318C109.346 26.8813 109.434 26.9077 109.523 26.9077C109.613 26.9077 109.701 26.8813 109.775 26.8318C109.85 26.7823 109.909 26.7119 109.944 26.6294C110.569 25.1524 111.188 23.6726 111.793 22.2286L112.72 20.0162C112.762 19.9181 112.832 19.8346 112.921 19.7759C113.01 19.7173 113.114 19.6862 113.221 19.6865L114.376 19.6833C114.466 19.6827 114.556 19.7048 114.636 19.7476C114.715 19.7903 114.783 19.8524 114.833 19.9282C114.883 20.004 114.913 20.091 114.92 20.1814C114.928 20.2717 114.912 20.3625 114.876 20.4454L111.484 28.2051C111.243 28.7627 111.005 29.3076 110.755 29.8395C111.665 31.899 112.532 33.8821 113.572 36.2614L116.349 42.6155C116.375 42.6757 116.4 42.7376 116.427 42.8046L116.442 42.8425L116.535 43.335L114.656 43.3549C114.548 43.3561 114.443 43.3252 114.353 43.2664C114.263 43.2075 114.192 43.1233 114.15 43.0243C113.537 41.5772 112.888 40.0893 112.316 38.7732L112.175 38.4499C111.438 36.7584 110.677 35.0091 109.945 33.2648C109.911 33.181 109.853 33.1092 109.779 33.0587C109.704 33.0081 109.616 32.9811 109.525 32.9811C109.435 32.9811 109.347 33.0081 109.272 33.0587C109.197 33.1092 109.139 33.181 109.106 33.2648C108.376 35.0313 107.591 36.8471 106.898 38.4485L106.852 38.5552C106.283 39.8731 105.578 41.5007 104.928 43.0547C104.887 43.1533 104.817 43.2375 104.728 43.2966C104.639 43.3557 104.534 43.387 104.427 43.3866L102.827 43.3889Z" fill="#1772D1"/>
<path d="M114.939 18.8567C114.849 18.856 114.761 18.8331 114.683 18.7903C114.605 18.7474 114.538 18.6858 114.489 18.611C114.44 18.5362 114.41 18.4504 114.403 18.3614C114.395 18.2723 114.409 18.1827 114.444 18.1006L114.685 17.5289C114.727 17.4305 114.797 17.3467 114.887 17.2881C114.976 17.2294 115.081 17.1985 115.188 17.1992H117.109L116.999 17.476L117.012 17.4946L116.999 17.566C116.981 17.677 116.949 17.7852 116.904 17.888L116.615 18.5465C116.573 18.6431 116.503 18.7253 116.415 18.7831C116.326 18.8409 116.223 18.8718 116.118 18.8721L114.939 18.8567Z" fill="#62EDC2"/>
<path d="M64.4003 43.4088C64.3347 43.4088 64.2686 43.4034 64.1999 43.397L63.8585 43.3676V18.2723C63.8585 18.1284 63.9156 17.9904 64.0174 17.8886C64.1192 17.7868 64.2572 17.7296 64.4012 17.7296H67.9287C68.6919 17.7251 69.4523 17.822 70.1899 18.0177C72.0496 18.5256 73.3068 19.6843 73.9264 21.4616C74.4519 22.9694 74.537 24.4636 74.1788 25.9027C73.8545 27.2079 73.1743 28.2485 72.1563 28.9965C72.0977 29.0398 72.0508 29.097 72.0197 29.1629C71.9886 29.2288 71.9743 29.3014 71.9781 29.3741C71.9826 29.4522 72.0064 29.5279 72.0473 29.5944C72.0883 29.661 72.1452 29.7163 72.2129 29.7554C72.7717 30.086 73.2753 30.5021 73.7053 30.9887C74.8201 32.2324 75.4207 33.6895 75.4894 35.319C75.5482 36.6938 75.417 37.7982 75.0774 38.7954C74.2331 41.2719 72.5027 42.7652 69.9353 43.2342C69.3818 43.3342 68.7857 43.3862 68.0024 43.4034C67.556 43.4129 67.0834 43.4169 66.5136 43.4169L64.4003 43.4088ZM67.5131 41.2145C67.836 41.2145 68.1051 41.2222 68.3597 41.2389C68.4574 41.2457 68.5537 41.2484 68.6491 41.2484C68.9844 41.2482 69.3184 41.2078 69.6441 41.1281C71.4888 40.6758 72.6221 39.6013 73.1097 37.8362C73.4104 36.7472 73.4597 35.6939 73.2557 34.7066C72.8071 32.5435 71.5372 31.1465 69.4817 30.5554C68.8771 30.3827 68.2575 30.3591 67.7306 30.3591C67.5307 30.3591 67.3295 30.3628 67.1287 30.3668C66.9279 30.3709 66.7171 30.3745 66.51 30.3745L66.1776 30.37V41.224L66.235 41.2276L66.9098 41.2226C67.1192 41.219 67.3159 41.2145 67.5131 41.2145ZM66.9871 28.3254C67.2096 28.3299 67.4136 28.334 67.6171 28.334C68.0169 28.334 68.3439 28.3204 68.6469 28.2919C70.0199 28.1648 71.6353 27.2943 72.0514 25.2306C72.2644 24.1971 72.1966 23.1253 71.8551 22.1269C71.5051 21.0975 70.8353 20.402 69.8652 20.0605C69.456 19.9092 69.0279 19.8146 68.5931 19.7792C67.9671 19.7381 67.3164 19.734 66.742 19.7299L66.1089 19.7268V28.3059L66.9871 28.3254Z" fill="#1772D1"/>
<path d="M90.7063 43.427C90.5623 43.427 90.4243 43.3698 90.3225 43.268C90.2207 43.1663 90.1636 43.0282 90.1636 42.8843V17.8971L90.3594 17.8618C90.4373 17.8447 90.5166 17.8344 90.5964 17.8311H92.4054C92.9757 17.8311 93.6522 17.8351 94.3464 17.8672C97.4796 18.012 99.9236 19.9847 100.723 23.0152C101.228 24.925 101.195 26.8326 100.625 28.6868C100.147 30.239 99.2429 31.4763 97.9382 32.3641C97.8509 32.4217 97.7861 32.5075 97.7545 32.6072C97.7229 32.7069 97.7264 32.8144 97.7645 32.9117L101.795 42.9562L101.726 43.1873L101.657 43.3374L99.9634 43.3614C99.8551 43.3623 99.7491 43.3307 99.6589 43.2708C99.5687 43.211 99.4985 43.1255 99.4573 43.0254L95.6231 33.7995C95.5888 33.7152 95.5298 33.6431 95.4539 33.5929C95.3779 33.5426 95.2886 33.5164 95.1976 33.5178C95.1712 33.5177 95.1448 33.5201 95.1189 33.525C94.4731 33.6372 93.82 33.6462 93.152 33.6462H92.7355L92.3488 34.0772V42.8829C92.3488 43.0269 92.2917 43.1649 92.1899 43.2667C92.0881 43.3685 91.9501 43.4256 91.8061 43.4256L90.7063 43.427ZM93.56 31.4682C93.8765 31.4682 94.1931 31.4682 94.5097 31.4636C94.676 31.4599 94.8415 31.4391 95.0035 31.4017C96.7583 31.0128 97.9432 29.9423 98.522 28.2192C98.906 27.0804 98.9901 25.8341 98.7794 24.4099C98.6437 23.4905 98.3479 22.6651 97.9029 21.9565C97.2209 20.8711 96.2477 20.1995 95.0085 19.9643C94.4857 19.8644 93.9643 19.8517 93.5686 19.8517C93.3365 19.8517 93.1059 19.8562 92.8735 19.8617L92.4954 19.8698V31.4664L93.56 31.4682Z" fill="#1772D1"/>
<path d="M41.0741 43.903C40.9774 43.903 40.8779 43.9007 40.7784 43.8971C40.1385 43.8798 39.5057 43.7586 38.9047 43.5384C37.6321 43.0586 36.6706 42.1681 35.9651 40.8168C35.4726 39.8734 35.114 38.7817 34.8345 37.3747C34.4727 35.5458 34.2981 33.5786 34.2728 30.998C34.2588 29.4351 34.308 28.0249 34.4243 26.6872C34.5649 25.074 34.7992 23.1823 35.4672 21.3769C35.7892 20.5068 36.1528 19.8284 36.6118 19.2423C37.5493 18.0488 38.8215 17.3804 40.3931 17.2551C40.5934 17.2402 40.7892 17.2325 40.976 17.2325C41.4918 17.2304 42.0059 17.2933 42.506 17.4197C43.7858 17.7503 44.7957 18.4979 45.5075 19.6421C45.9982 20.4299 46.3641 21.3565 46.6269 22.4736C46.7141 22.848 46.7851 23.227 46.853 23.5934L47.0058 24.3988L46.7824 24.4499C46.5563 24.4997 46.3786 24.5553 46.1837 24.6181C45.8246 24.7344 45.4863 24.8443 45.086 24.8443H45.0476L44.94 24.8235L44.7984 24.7167L44.6885 24.2193C44.6302 23.8909 44.5809 23.6137 44.5225 23.3383C44.3656 22.5921 44.1558 21.9607 43.8772 21.4058C43.2802 20.2169 42.2735 19.5878 40.9642 19.5878C40.8074 19.5882 40.6507 19.5968 40.4948 19.6136C39.4628 19.7198 38.6768 20.2128 38.0907 21.1214C37.5991 21.8807 37.3431 22.7535 37.1568 23.507C36.8519 24.769 36.6674 26.057 36.6055 27.3538C36.5272 28.9118 36.4924 30.1709 36.4951 31.3155C36.4996 33.4863 36.6421 35.2428 36.9438 36.8433C37.0975 37.6606 37.3137 38.6166 37.7528 39.5116C37.8968 39.8109 38.0644 40.0982 38.2539 40.3709C38.9282 41.3287 39.8427 41.7946 41.0502 41.7946C41.1479 41.7946 41.246 41.7909 41.3464 41.7851C42.4318 41.7177 43.2549 41.217 43.8686 40.2538C44.3851 39.4438 44.7251 38.49 44.9382 37.2467C44.9911 36.9433 45.0286 36.6439 45.068 36.3386L45.1797 35.5029L47.3274 36.0881L47.1691 36.9474C47.0787 37.4448 47.0022 37.8595 46.9045 38.2919C46.6332 39.4781 46.2479 40.4695 45.7287 41.322C44.6822 43.0351 43.116 43.903 41.0741 43.903Z" fill="#1772D1"/>
<path d="M78.3463 43.3626C78.2049 43.3636 78.0688 43.309 77.9673 43.2106C77.8658 43.1122 77.807 42.9779 77.8036 42.8366C77.7307 40.299 77.7859 21.0301 77.8036 18.2845C77.8034 18.2134 77.8173 18.1431 77.8446 18.0775C77.8719 18.0119 77.912 17.9525 77.9625 17.9025C78.013 17.8526 78.0729 17.8132 78.1388 17.7867C78.2047 17.7602 78.2752 17.7471 78.3463 17.7481H87.0995C87.2435 17.7481 87.3815 17.8053 87.4833 17.9071C87.5851 18.0088 87.6422 18.1469 87.6422 18.2908V19.3708C87.6422 19.5147 87.5851 19.6527 87.4833 19.7545C87.3815 19.8563 87.2435 19.9135 87.0995 19.9135H80.006V28.4646H85.0897C85.2337 28.4646 85.3717 28.5218 85.4735 28.6235C85.5753 28.7253 85.6324 28.8634 85.6324 29.0073V30.0827C85.6324 30.2267 85.5753 30.3647 85.4735 30.4665C85.3717 30.5683 85.2337 30.6254 85.0897 30.6254H80.0092V41.1868H87.3125C87.4565 41.1868 87.5945 41.244 87.6963 41.3458C87.7981 41.4475 87.8552 41.5856 87.8552 41.7295V42.8176C87.8552 42.9615 87.7981 43.0996 87.6963 43.2014C87.5945 43.3031 87.4565 43.3603 87.3125 43.3603L78.3463 43.3626Z" fill="#1772D1"/>
<path d="M54.2346 43.3232C54.0907 43.3232 53.9526 43.2661 53.8508 43.1643C53.7491 43.0625 53.6919 42.9245 53.6919 42.7805V40.6437C53.6919 37.6422 53.6931 34.6408 53.6955 31.6394C53.6991 31.4132 53.6528 31.189 53.5598 30.9827C51.9945 27.5562 50.4322 24.1278 48.8732 20.6977L47.8407 18.4278C47.8131 18.3686 47.7249 18.1501 47.7249 18.1501L47.7028 18.0959L47.7715 17.8661L47.8357 17.7173L48.6439 17.6907L49.0925 17.6961C49.1798 17.6961 49.2693 17.6938 49.3589 17.6875C49.7736 17.6875 49.9219 17.9055 50.0065 18.0945C50.2697 18.6933 50.5438 19.2971 50.8007 19.861L52.1194 22.7672C52.8168 24.3048 53.5381 25.8981 54.245 27.4828L54.3666 27.7613C54.3999 27.8443 54.4573 27.9154 54.5316 27.9651C54.6058 28.0149 54.6933 28.0411 54.7827 28.0404C54.8733 28.0402 54.9619 28.0132 55.0372 27.9628C55.1125 27.9125 55.1712 27.8409 55.206 27.7573C55.4086 27.2725 55.6293 26.7949 55.8423 26.3331L59.5571 18.1606L59.738 17.7748L61.5759 17.7427L61.7772 17.8978L61.8301 17.9702L61.8631 18.1108L61.8238 18.2275C61.7885 18.3179 61.7609 18.3889 61.7297 18.4568L57.7499 27.1752C57.1572 28.4741 56.5635 29.7726 55.969 31.0709C55.899 31.2246 55.864 31.3919 55.8663 31.5607C55.869 34.6116 55.8699 37.6627 55.869 40.7142V42.7778C55.869 42.9218 55.8118 43.0598 55.7101 43.1616C55.6083 43.2633 55.4702 43.3205 55.3263 43.3205L54.2346 43.3232Z" fill="#1772D1"/>
</svg>
